<svg xmlns="http://www.w3.org/2000/svg" viewBox="0 0 1024 1024"><defs><style>.cls-1{isolation:isolate;}.cls-2{fill:#3b5998;}.cls-3{fill:#ecf3ff;}.cls-4{fill:#c8dbfb;}.cls-10,.cls-13,.cls-17,.cls-18,.cls-5,.cls-6,.cls-8{fill:none;stroke-linecap:round;stroke-linejoin:round;}.cls-18,.cls-5,.cls-6{stroke:#c8dbfb;}.cls-6{stroke-dasharray:4 4;}.cls-7{fill:#5193f4;}.cls-17,.cls-8{stroke:#0b43a4;}.cls-9{fill:#00ad9f;}.cls-10,.cls-13{stroke:#00ad9f;}.cls-10,.cls-14{mix-blend-mode:multiply;}.cls-11{fill:#0056ec;}.cls-12{fill:#52d2bc;}.cls-14{fill:#5275a0;opacity:0.2;}.cls-15{fill:#7ee8d4;}.cls-16{fill:#4a49ca;}.cls-17,.cls-18{stroke-dasharray:4;}.cls-19{fill:#0b43a4;}.cls-20{fill:#fff;}.cls-21{fill:#0c2340;}.cls-22{fill:#ef832b;}.cls-23{fill:#ffb9a3;}.cls-24{fill:#047f76;}.cls-25{fill:#009790;}.cls-26{fill:#d8742a;}</style></defs><title>icon</title><g class="cls-1"><g id="Capa_1" data-name="Capa 1"><g id="Layer_1" data-name="Layer 1"><circle class="cls-2" cx="512" cy="512" r="512"/></g></g><g id="Capa_2" data-name="Capa 2"><path class="cls-3" d="M257.09,232.15c28.94,1.94,41-17.81,54.64-43.19,37.22-69.48,120.12-62.78,147.93-20,19.7,30.3,62.17,24.07,96.53,12.21,33.82-11.67,91.44-22.89,137.33-8.94,40.08,12.18,56.53,56.14,93.07,53.44,79.71-5.9,119.9,72.8,105.46,107.12-9.42,22.4-14.1,47.46-6.44,70.51,8.44,25.39,27.71,45.49,43.29,67.31S957,519.72,949.3,545.32c-6.63,21.91-26.4,37.07-38.67,56.44-38.11,60.16-.41,152.37-51.19,202.52-36.34,35.9-95.6,27.61-146.46,34.46-42.41,5.71-82.32,23.52-124.54,30.5-85.5,14.13-171.84-17-258.51-17.87-30.53-.31-61.63,3.09-91.2-4.44-39.45-10-73-40.4-86.72-78.4-18.89-52.44-1-113.13-22.33-164.64-17.38-42-59.89-76.1-57.22-121.38,1.67-28.19,20.92-51.77,34.17-76.77C126.32,368.57,100.26,221.65,257.09,232.15Zm252.3-68.07c-7.61,0-13.77,4.72-13.77,10.55s6.18,10,13.77,10.55c24.73,1.63,24.73-8.36,24.73-14.19C534.12,161.68,517,164.08,509.39,164.08Zm251.18,45a40.71,40.71,0,0,0,23.64,9.17c2.3.12,4.8,0,6.57-1.48a5.37,5.37,0,0,0,.48-7.54c-1.22-1.3-3-1.88-4.66-2.55-2.83-1.15-5.6-2.79-7.2-5.37a5.3,5.3,0,0,0-1.64-2C773,196.57,751.87,201.88,760.57,209.07Zm42.13,9.32c2.18.75,4.56.06,6.75-.65,1.41-.46,3.13-1.46,2.75-2.88a2.64,2.64,0,0,0-1.45-1.47c-2.88-1.54-6.62-2.68-9.52-.71S800.52,217.64,802.7,218.39ZM903.29,417.12c.38,3.28,2.4,6.12,4.36,8.79,3.78,5.16,7.62,10.37,12.61,14.39,2.11,1.7,4.57,3.22,7.29,3.32a11.42,11.42,0,0,0,6.86-2.48,21.82,21.82,0,0,0,8.87-15.06c.93-8.16-2.87-16.1-7.28-23-2.73-4.3-5.92-8.59-10.5-10.9-7.67-3.87-12.73-.49-14.88,6.3C908.65,404.69,902.49,410.16,903.29,417.12ZM87.4,607c-4,3.56-.4,14,.8,20.84a12.7,12.7,0,0,0,2.14,5.84c1.78,2.25,4.73,3.17,7.5,4,4.92,1.43,10.87,2.63,14.63-.82,2.79-2.56,3.18-6.74,3.17-10.5a98.15,98.15,0,0,0-.56-10.29,11,11,0,0,0-1.29-4.74c-1.12-1.79-3.12-2.84-5.08-3.67C101.68,604.68,91.44,603.47,87.4,607Zm246.81,260.8c-2.39.48-5.24,1.51-5.59,3.9-.29,2,1.38,3.66,3,4.86,13.18,9.83,30.92,10.46,47.41,10.69a14.09,14.09,0,0,0,5.69-.71A7.33,7.33,0,0,0,388.3,877a11.89,11.89,0,0,0-2.54-3.28C372.5,860.82,350.71,864.52,334.21,867.83Zm329.14-6.65c-14.88,10.88.17,20.59,19,13.39,10.12-3.88,19.83-7.72,30.19-10.32,3.35-.84,23.6-5.22,23.6-9.77,0-12.06-22.81-9.21-37.17-7.2C687.37,848.9,675.62,852.2,663.36,861.17Z"/><ellipse class="cls-4" cx="379.01" cy="816.37" rx="71.6" ry="6.69"/><ellipse class="cls-4" cx="746.86" cy="816.37" rx="71.6" ry="6.69"/><path class="cls-5" d="M898.14,345.38q-.16-1-.34-2"/><path class="cls-6" d="M897,339.48c-11.08-48.75-53.44-44.25-91.6-44.17l-653.09,1.35c-61.65.13-55.68,89.13-7.41,89,27.75-.06,38.31,52.06-9.68,52.16-30.32.06-29.73,40.55-7.09,44.77"/><path class="cls-5" d="M130.13,482.89q1,.09,2,.08"/><circle class="cls-7" cx="130.95" cy="482.78" r="8.87" transform="translate(-79.3 28.89) rotate(-9.68)"/><circle class="cls-7" cx="898.15" cy="347.78" r="8.87" transform="translate(395.03 1169.05) rotate(-79.68)"/><path class="cls-7" d="M230.14,416.48a154.58,154.58,0,0,1-5.43,21.19c-4.91,15-11.69,29.42-18.55,43.67-3.58,7.45-18.08,24.68-25.86,28,.91-19.43,1-42.13-1.28-61.75-2.17-18.9,4.63-33.22-2.78-50.75-.94-2.24-1.93-4.48-2.91-6.73-3.69-8.34-7.34-16.71-8.49-25.7C163.36,353,166.9,340,176.76,334.07c7.1-4.26,16.34-4,23.92-.69s13.65,9.49,18.27,16.36C231.86,368.94,234.19,393.73,230.14,416.48Z"/><path class="cls-8" d="M195.68,353.54c14.51,20.48,15.77,44.35,17,69.42a133.87,133.87,0,0,1-17.15,72.3"/><path class="cls-9" d="M195.07,731.45c-10.17-9-20.45-18.11-28-29.41-6.54-9.84-10.77-21-16.48-31.36-3.69-6.7-8.06-13.15-10.2-20.49s-1.63-16,3.59-21.63c5.44-5.83,14.8-6.73,22.19-3.72s13,9.22,17.35,15.93a75.91,75.91,0,0,1,11.15,29.51c1.45,9.49,1.08,19.19,2.55,28.67a96,96,0,0,0,8.09,25.42c3.4,7.34,12,20.44,14.19,28C213.46,755.38,199.4,735.28,195.07,731.45Z"/><path class="cls-10" d="M159.52,638.27C169.19,642.5,173,654,175,664.39c2.3,11.79,1.79,24.56,7.19,35.28,10.18,20.21,23.44,43.21,33.29,50.08"/><path class="cls-11" d="M145,703.81c-8.44-3.33-19.71-4.7-25.12,2.58-4.53,6.1-2.18,14.74.94,21.66,2.64,5.84,6,11.78,11.57,15,3.8,2.17,8.26,2.82,12.61,3.34a302.34,302.34,0,0,0,36.57,2.12c14.16,0,31.31,5.74,43,14.57C209.6,735.09,173.43,715,145,703.81Z"/><path class="cls-8" d="M130.23,722c10.74.46,21.58,1.21,31.89,4.26,10.54,3.12,51.09,21.73,57.43,29.65"/><path class="cls-12" d="M237.07,646.46a71.47,71.47,0,0,0-50-31.91c-14.93-2-30.3.79-45-2.32a57.39,57.39,0,0,1-43.19-72.64c3.46-11.53,11.37-22.45,22.82-26.15,6.24-2,13.06-1.73,19.44-.2a54.06,54.06,0,0,1,16.39,7.08c11.53,7.3,20.84,18.53,27.84,30.46,6.36,10.84,22,27.72,32.7,38.7,6.26,6.41,10.8,10.8,10.8,10.8C236.16,609.37,232.74,635.62,237.07,646.46Z"/><path class="cls-13" d="M118.34,546.76c35.88,16.2,75,37.43,100.47,67.47"/><path class="cls-14" d="M222.25,610.2s-53.48-43.34-64.75-89.88c11.53,7.3,20.84,18.53,27.84,30.46,6.36,10.84,22,27.72,32.7,38.7C219.3,595.3,220.7,602.13,222.25,610.2Z"/><path class="cls-14" d="M224.71,437.68c-4.91,15-11.69,29.42-18.55,43.67-3.58,7.45-18.08,24.68-25.86,28,.91-19.43,1-42.13-1.28-61.75-2.17-18.9,4.63-33.22-2.78-50.75-.94-2.24-1.93-4.48-2.91-6.73.69.22,1.35.46,2,.74,12.19,5.22,17.82,18.12,18.86,30.64.87,10.34-1,20.69-2.39,31-.65,4.74-1.17,9.6-.15,14.25a.44.44,0,0,1,0,.15c1.28,5.54,9.37,5.22,10.41-.39l3.24-17.21c1-5.15,2-10.54,6.24-14.14a8.92,8.92,0,0,1,6-2.24C221.08,433,223.26,435,224.71,437.68Z"/><path class="cls-15" d="M222.26,599.33c-8.45-44.11-12.89-50.91-9.17-62,4.73-14.09,2.07-28.26,6.54-42.44s7.51-29.43,3.9-43.85c-1.14-4.56-3.45-9.53-8.93-9.72a8.92,8.92,0,0,0-6,2.24c-4.22,3.6-5.29,9-6.25,14.14l-3.23,17.21c-1,5.6-9.14,5.93-10.42.38l0-.14c-1-4.66-.5-9.51.14-14.24,1.39-10.29,3.26-20.64,2.4-31-1-12.52-6.67-25.42-18.87-30.63a21.56,21.56,0,0,0-13.76-1.1c-12.73,3.27-16,15.71-14.16,26.33,1.31,7.48,4.82,14.35,8,21.25,7.75,16.84,2.06,32.29,3.14,50.8C158.5,547.68,222.26,599.33,222.26,599.33Z"/><path class="cls-13" d="M165.45,411.57c6.28,31.38,12.63,63,24.83,92.59,3.58,8.68,5.32,20.1,26,43.71"/><path class="cls-7" d="M410.46,419.61c-6.5-7.43-12.51-15-18.82-22.27-4.09-4.72-8.32-9.34-12.91-13.71-2.28-2.19-4.63-4.3-7.11-6.35A199.77,199.77,0,0,0,323,347.62c-10.56-4.52-21.71-8.24-30.68-15.45s-15.41-19-12.43-30.11c2.17-8,9-14.23,16.77-17.08s16.41-2.61,24.51-.87c22.6,4.87,41.48,21.12,54.32,40.33.22.33.46.69.69,1,9.41,14.36,16,30.33,21.71,46.6,1.83,5.22,3.58,10.49,5.3,15.73C405.83,395.64,413.79,411.85,410.46,419.61Z"/><path class="cls-8" d="M307.07,303c24.66,4.7,42.11,21,60.4,38.22a133.88,133.88,0,0,1,37.76,64"/><path class="cls-14" d="M391.63,397.34a29.17,29.17,0,0,0,.35,7.71c-6.17-1.41-10.45-11-13.27-21.42a161,161,0,0,1-4.56-26.16,113.18,113.18,0,0,1,2.06-32c9.41,14.36,16,30.33,21.71,46.6q-2.95,8.75-5,17.71A51.48,51.48,0,0,0,391.63,397.34Z"/><path class="cls-12" d="M434.43,308.32c-2.09,9.25-7.67,17.24-12.59,25.34-2.6,4.27-5,8.66-7.28,13.1a199.21,199.21,0,0,0-16.41,44.88c-1.2,5.1-1.87,10.09-.91,15.27-12.16-2.77-17-37.32-17.83-47.59a112,112,0,0,1,9.31-54.38c3.33-7.44,7.61-14.74,14.23-19.5s15.94-6.43,22.92-2.28a18.69,18.69,0,0,1,8.22,11.37A28.22,28.22,0,0,1,434.43,308.32Z"/><path class="cls-13" d="M392.58,396.72c-7.56-19-3-59.17,9.16-84.42,3.65-7.61,8.85-14.74,16.14-19"/><path class="cls-14" d="M434.43,308.32c-2.09,9.25-7.67,17.24-12.59,25.34-2.6,4.27-5,8.66-7.28,13.1a44.17,44.17,0,0,1-6.22-18.22c-1-10.76,3.09-22.29,11.84-28.63a31.74,31.74,0,0,1,13.91-5.39A28.22,28.22,0,0,1,434.43,308.32Z"/><path class="cls-9" d="M504.55,388.73A39.24,39.24,0,0,1,501.4,399c-5.39,11.67-16.7,21.68-33.66,29.83,0,0-.94-18.46-1.14-23.39-.83-21.15-23.79-32.86-38.31-48.28-7.4-7.87-13-17.81-14-28.57s3.09-22.29,11.84-28.63c7.34-5.29,16.94-6.45,26-5.76,14.56,1.16,29.26,7.26,38.31,18.63a16.67,16.67,0,0,1,1.06,1.34c5.55,7.58,8.4,16.8,10.49,26C505.53,356,507.16,372.6,504.55,388.73Z"/><path class="cls-10" d="M432.32,311.27c15.89,8.22,31.81,18.15,41.06,33.47,12.91,21.36,10.1,49.15.14,72"/><path class="cls-12" d="M770.4,525.19c10.13-16.67,5-38.12,8.48-57.31a63.33,63.33,0,0,1,22.66-37.76c7.37-5.86,17.72-10,26-5.65,1.8,1,3.95,2.29,5.69,1.22a4.54,4.54,0,0,0,1.7-3.12c2.11-10.36-2.87-21.68,1.2-31.45,2.19-5.26,6.73-9.18,11.53-12.24a62.86,62.86,0,0,1,31.07-9.75c2.91-.12,5.94,0,8.55,1.3,4.71,2.36,6.86,8.22,6.23,13.45S890,393.8,886.84,398c-10.64,13.91-26.22,25.91-28.28,43.3a11.29,11.29,0,0,0,.75,6.49c1,1.9,2.79,3.26,3.81,5.13,3.28,6-3.05,12.85-9.23,15.81a53.3,53.3,0,0,1-18,5c-4.29.4-9.14.5-12.06,3.67-5.39,5.85.8,15.2-.33,23.08-.7,4.91-4.27,8.88-7.85,12.32A140.92,140.92,0,0,1,794,529.86c-6.29,4-13,7.59-18.53,12.56s-10.09,11.7-10.45,19.16"/><path class="cls-13" d="M783.75,509c1.65-8.08,5.41-15.55,9.14-22.92,5.82-11.51,11.75-23.18,20.53-32.61,6.67-7.17,14.8-12.83,21.59-19.89a74,74,0,0,0,12.19-16.93c1.75-3.35,3.27-6.87,5.64-9.82,2.81-3.5,6.66-6,10-9a42.87,42.87,0,0,0,10.6-14.62"/><path class="cls-7" d="M915.85,536.76c-2.28,8.78-5.67,17.47-11.49,24.44a52.13,52.13,0,0,1-14.49,11.69,81.47,81.47,0,0,1-8.76,4.28,105.21,105.21,0,0,1-36.63,8.11c-18.3.69-37.13-3.35-54.69,1.87a53.89,53.89,0,0,0-21.58,12.51,52.51,52.51,0,0,0-9.69,12.25l2.39-15.19c4.43-16.34,8.95-33,18-47.3,5.84-9.28,13.41-17.36,21.47-24.79,12.88-11.89,27.16-22.36,42.93-30,12.75-6.19,26.9-10.54,41-8.82s27.88,10.6,32.27,24.07C919.37,518.51,918.15,528,915.85,536.76Z"/><path class="cls-8" d="M772.88,585.15a111.1,111.1,0,0,1,56.38-42.8c14.2-4.74,29.21-6.54,43.6-10.69s28.73-11.2,37.16-23.56"/><path class="cls-12" d="M781.74,731.09c.8-20.43,11.36-39.3,24.19-55.22,10.7-13.28,23.61-25.44,39.55-31.49,5-1.9,10.48-3.17,15.67-1.89s9.89,5.71,10,11.06c.08,4.51-2.95,8.44-6.13,11.63-10.48,10.5-24,17.24-36.73,24.91-21.83,13.19-42.57,30.8-51.23,54.78"/><path class="cls-13" d="M789.82,713.2c13.34-29.75,47.87-56.35,70.64-59.68"/><path class="cls-9" d="M773.4,747.33c-.18-3.42,11-12.38,13.5-14.66a129.37,129.37,0,0,1,48-27.44c7.09-2.22,14.61-3.84,21.7-2.13s13.59,7.52,14.29,15.16c.68,7.41-4.3,14.67-10.65,18.26s-13.77,4.13-20.85,3.72c-10.94-.64-21.68-3.35-32.65-3.27S780.37,738.16,773.4,747.33Z"/><path class="cls-10" d="M784.78,736.93c22.44-12.16,56.37-20.07,81-17.09"/><path class="cls-14" d="M504.55,388.73A39.24,39.24,0,0,1,501.4,399a178.2,178.2,0,0,1-16.47-65.24,36.08,36.08,0,0,1,5.43-20.93,16.67,16.67,0,0,1,1.06,1.34c5.55,7.58,8.4,16.8,10.49,26C505.53,356,507.16,372.6,504.55,388.73Z"/><path class="cls-15" d="M582.16,387.8c16.76-6,34.16-10.7,49.39-19.87,4.61-2.77,9-6,12.32-10.27s5.28-9.71,4.55-15-4.21-10.6-3-15.94c.77-3.52,3.41-6.27,5.43-9.26a29.53,29.53,0,0,0,3.79-24.6c-2.63-8.83-9.24-15.89-13-24.3a40.55,40.55,0,0,1-3.14-22.05c-14.05.19-26.88,7.87-40.7,10.43-10.57,2-21.57.89-32,3.3C546.59,264.6,531,281.42,528,300.8A27.85,27.85,0,0,0,503.44,309a36.14,36.14,0,0,0-9.64,26.42c4.32,69.34,44,105.52,44,105.52S575.77,390.07,582.16,387.8Z"/><path class="cls-13" d="M544.68,387.31c-1.74-17.11,4.23-34,11.1-49.78,6.69-15.36,14.39-30.42,24.73-43.61s23.47-24.5,39-30.86"/><path class="cls-13" d="M559.59,273.55A137.94,137.94,0,0,0,563,322"/><path class="cls-13" d="M565.89,316.55c17.42-11.17,44.21-18,64.87-16.77"/><path class="cls-13" d="M523.3,319.4c21,8.84,21.83,39.67,22.39,48.43"/><path class="cls-13" d="M551.41,348.23c16-11.51,39.23-15,56.29-10.68"/><path class="cls-13" d="M595.18,265.64a25.32,25.32,0,0,0-5.54,17.93"/><path class="cls-13" d="M594.2,279.22c7.4-3.79,17.28-4.66,27.86-2"/><path class="cls-16" d="M181.68,312.75c2-.1,15.41-10.06,20.59-13.41a14.14,14.14,0,0,0,4-3.34,5,5,0,0,0,.75-4.9c-.92-1.95-2.44-3.89-6.29-3.88-6.7,0-9,2.21-12.28,5.58C177.64,303.93,181.68,312.75,181.68,312.75Z"/><path class="cls-16" d="M241.94,352.91c5.85,2.63,12.1,5.25,18.47,4.44,2.47-.32,5.16-1.44,6-3.79a5.53,5.53,0,0,0-1.86-5.72,13.22,13.22,0,0,0-5.76-2.6c-7.79-1.9-18.73-.85-26.44,1.34C232.34,346.58,238.45,351.34,241.94,352.91Z"/><path class="cls-16" d="M280.48,266.47c-2.61-1.65-5.49-3.85-5.49-6.94s3.23-5.45,6.33-5.47,6,1.67,8.3,3.72c9.85,8.64,8.62,18.5,8.62,18.5S283.39,268.31,280.48,266.47Z"/><path class="cls-16" d="M288.24,240.1c-2.29-1-4.65-2.17-6-4.27a4.08,4.08,0,0,1-.62-3.46c.67-1.92,1.87-3.64,6.7-2.76,15.28,2.77,18.61,13.24,18.61,13.24S292.3,241.85,288.24,240.1Z"/><path class="cls-16" d="M333,263.26a24.16,24.16,0,0,0,16.33-8.37,15,15,0,0,0,3.28-6.07,6.65,6.65,0,0,0-1.79-6.39c-2.15-1.85-5.55-1.55-7.92,0s-3.88,4.11-5.11,6.66C336.17,252.48,333,263.26,333,263.26Z"/><path class="cls-8" d="M223.55,486.81,179,447.55c-7.91-7-16-14.15-21-23.43-10.77-19.95-4.56-45.87,10-63.26s35.85-27.66,57.26-35.13S269,313,289.36,303.12c12.8-6.2,25.66-15.43,29.17-29.21A29.15,29.15,0,0,0,292,237.62"/><path class="cls-8" d="M343.4,249c-4.06,12.46-19.85,20-27.07,30.82"/><path class="cls-8" d="M286.67,263.35c3.11,3.29,6.84,6,9.55,9.62,5.74,7.65,6.22,20.08-2.27,27.79"/><path class="cls-8" d="M206.73,333.08c13.1,10.09,30.31,16.82,46.83,17.46"/><path class="cls-8" d="M176.75,351.46c-6-17.78.54-39.08,15.54-50.38"/><path class="cls-16" d="M655.51,276.33c-.71-2.2-.68-4.9,1-6.55a4.83,4.83,0,0,1,5.13-1.15c13,5.73,11.61,26,11.61,26S660.85,292.89,655.51,276.33Z"/><path class="cls-16" d="M655.19,314.39c-8.43,15.23,21.52,14.06,32.32,5.1C687.51,319.48,662.44,301.28,655.19,314.39Z"/><path class="cls-16" d="M693,277.48c-2-2.79-2.75-6.94-.54-9.58a7.4,7.4,0,0,1,7-2.09,16.5,16.5,0,0,1,7.91,4.82c9.85,12.26,5.22,24.26,5.22,24.26S696.38,282,693,277.48Z"/><path class="cls-16" d="M812,315.18c-.73-2.37-.56-5.27,1.29-6.93a5.89,5.89,0,0,1,4.38-1.31,13.34,13.34,0,0,1,4.48,1.34,14.3,14.3,0,0,1,6.9,6.85c3.7,7.63,1.19,17.07,1.19,17.07S813.78,321.09,812,315.18Z"/><path class="cls-16" d="M774.56,343.12a19.23,19.23,0,0,0-19.85-3.2,10.17,10.17,0,0,0-4.25,3.19c-2.36,3.27-1.54,8.05.92,11.26s6.18,5.15,9.85,6.82c6.66,3,17,3.63,24.1,5.44C785.32,366.63,785.29,352.55,774.56,343.12Z"/><path class="cls-8" d="M664.84,279.59c4.4,14.42,16.87,25.3,30.75,31.19s29.17,7.44,44.22,8.41,30.27,1.46,44.82,5.41c14.18,3.85,28.3,11.87,34.39,25.24,7.41,16.28.85,35.74-9.55,50.29S785.07,426.41,775,441.2c-4.62,6.79-8.48,14.74-7.54,22.9,1.24,10.88,10.41,18.89,18.92,25.77"/><path class="cls-8" d="M699.52,274.3c10,11,17.94,28.28,19.88,43"/><path class="cls-8" d="M666,316.91c5.7,1.51,11.48,3,17.38,3.05s12.73-3.25,17-7.35"/><path class="cls-8" d="M821.72,316.08a29.44,29.44,0,0,1,8.87,19.85c.28,7.42-3.84,16.41-8.78,22"/><path class="cls-8" d="M765.83,349.75a297.16,297.16,0,0,0,31.82,26.1c5.41,3.81,16.16,8.69,20.93,7.43"/><path class="cls-14" d="M889.88,572.89a81.47,81.47,0,0,1-8.76,4.28,105.21,105.21,0,0,1-36.63,8.11c-18.3.69-37.13-3.35-54.69,1.87a53.89,53.89,0,0,0-21.58,12.51c-.61.3-1.22.63-1.83,1-1.46-12.39,29.44-28.55,38.83-32.76a112,112,0,0,1,54.38-9.49c8.11.65,16.43,2.24,23.12,6.85A24.74,24.74,0,0,1,889.88,572.89Z"/><path class="cls-12" d="M859.59,565.81c8.11.65,16.43,2.24,23.13,6.85s11.41,12.86,9.85,20.84c-1.82,9.3-11.44,15.35-20.84,16.49s-18.81-1.44-28.09-3.35a200.27,200.27,0,0,0-62.58-2.86c-5.2.58-10.13,1.61-14.68,4.27-1.46-12.4,29.45-28.55,38.85-32.76A112,112,0,0,1,859.59,565.81Z"/><path class="cls-13" d="M774.41,600.24c15.35-13.49,54.74-22.65,82.6-19.7,8.39.89,16.86,3.39,23.31,8.84"/><path class="cls-17" d="M745.75,448.69l149.86-.31a31.84,31.84,0,0,1,31.91,31.78h0a31.84,31.84,0,0,1-31.78,31.91l-102.51.21"/><path class="cls-17" d="M292.31,558.72l-104.8.22a18,18,0,0,0-17.94,18h0a18,18,0,0,0,18,17.94l30.56-.06"/><path class="cls-18" d="M125,639.88c-35.9.07-36.65,53.63,9,53.53L807.3,692c28.26-.06,31.24-44.15-3.69-44.08-69.52.14-71.83-33-33.23-33.09"/><circle class="cls-7" cx="124.69" cy="639.88" r="8.87" transform="translate(-105.81 30.07) rotate(-9.68)"/><circle class="cls-19" cx="778.85" cy="616.58" r="8.87" transform="translate(-92.58 139.72) rotate(-9.68)"/><path class="cls-14" d="M797.26,769.92,239.8,771.07a13.47,13.47,0,0,1-13.49-13.44l-.76-369.3A13.47,13.47,0,0,1,239,374.84l557.45-1.15a13.47,13.47,0,0,1,13.49,13.44l.76,369.3A13.47,13.47,0,0,1,797.26,769.92Z"/><path class="cls-20" d="M786.34,762.87,228.89,764a13.47,13.47,0,0,1-13.49-13.44l-.76-369.3a13.47,13.47,0,0,1,13.44-13.49l557.45-1.15A13.47,13.47,0,0,1,799,380.07l.76,369.3A13.47,13.47,0,0,1,786.34,762.87Z"/><path class="cls-11" d="M784.62,366.64l-555.07,1.15a14.66,14.66,0,0,0-14.63,14.69l0,12.75L799.33,394l0-12.75A14.66,14.66,0,0,0,784.62,366.64Z"/><path class="cls-4" d="M230.22,764l83.87-.17L313.32,395l-98.53.2.73,354.19A14.65,14.65,0,0,0,230.22,764Z"/><path class="cls-11" d="M785.69,368.63a11.48,11.48,0,0,1,11.46,11.44l.76,369.3a11.48,11.48,0,0,1-11.44,11.49L229,762a11.48,11.48,0,0,1-11.47-11.44l-.76-369.3a11.47,11.47,0,0,1,11.44-11.49l557.45-1.15h0m0-2h0l-557.45,1.15a13.47,13.47,0,0,0-13.44,13.49l.76,369.3A13.47,13.47,0,0,0,229,764h0l557.45-1.15a13.47,13.47,0,0,0,13.44-13.49l-.76-369.3a13.47,13.47,0,0,0-13.47-13.44Z"/><rect class="cls-20" x="230.13" y="724.93" width="74.96" height="10.97" rx="2.79" ry="2.79" transform="translate(-1.51 0.55) rotate(-0.12)"/><rect class="cls-20" x="227.6" y="411.71" width="73.95" height="73.95" rx="5.11" ry="5.11" transform="translate(-0.93 0.55) rotate(-0.12)"/><rect class="cls-4" x="329.26" y="636.31" width="205.2" height="14.32" rx="3.64" ry="3.64" transform="translate(-1.33 0.89) rotate(-0.12)"/><rect class="cls-4" x="358.39" y="417.84" width="164.99" height="14.32" rx="3.64" ry="3.64" transform="matrix(1, 0, 0, 1, -0.88, 0.91)"/><rect class="cls-4" x="547.4" y="571.11" width="215.48" height="14.32" rx="3.64" ry="3.64" transform="translate(-1.19 1.35) rotate(-0.12)"/><rect class="cls-4" x="329.33" y="665.93" width="205.2" height="14.32" rx="3.64" ry="3.64" transform="matrix(1, 0, 0, 1, -1.39, 0.89)"/><rect class="cls-4" x="329.39" y="695.54" width="205.2" height="14.32" rx="3.64" ry="3.64" transform="translate(-1.45 0.89) rotate(-0.12)"/><rect class="cls-4" x="547.6" y="623.92" width="215.48" height="105.26" rx="6.01" ry="6.01" transform="translate(-1.4 1.35) rotate(-0.12)"/><circle class="cls-4" cx="242.25" cy="381.22" r="4.72" transform="matrix(1, 0, 0, 1, -0.78, 0.5)"/><circle class="cls-4" cx="262.24" cy="381.18" r="4.72" transform="translate(-0.78 0.54) rotate(-0.12)"/><circle class="cls-4" cx="282.24" cy="381.14" r="4.72" transform="translate(-0.78 0.58) rotate(-0.12)"/><circle class="cls-4" cx="337.4" cy="425.22" r="13.66" transform="translate(-0.88 0.7) rotate(-0.12)"/><rect class="cls-20" x="232.97" y="491.8" width="65.58" height="5.4" rx="1.37" ry="1.37" transform="translate(-1.02 0.55) rotate(-0.12)"/><rect class="cls-20" x="232.99" y="503.35" width="65.58" height="5.4" rx="1.37" ry="1.37" transform="translate(-1.04 0.55) rotate(-0.12)"/><path class="cls-4" d="M365.28,533.11l-17.11.17.13,71.66-14.76,0a9.43,9.43,0,0,1-9.45-9.41l-.27-132.52a9.53,9.53,0,0,1,9.51-9.55l31.77-.08Z"/><path class="cls-4" d="M481.36,453.19v1a5,5,0,0,1,5,5l.29,139.45a5,5,0,0,1-5,5L330.11,604a5,5,0,0,1-5-5l-.29-139.45a5,5,0,0,1,5-5l151.54-.31v-1m0,0h0l-151.53.31a6,6,0,0,0-6,6L324.1,599a6,6,0,0,0,6,6h0l151.53-.31a6,6,0,0,0,6-6l-.29-139.45a6,6,0,0,0-6-6Z"/><rect class="cls-4" x="523.25" y="421.27" width="215.48" height="118.44" rx="6.01" ry="6.01" transform="translate(121.44 -127.28) rotate(12.74)"/><polygon class="cls-11" points="347.44 814.66 321.06 814.72 314.61 781.12 353.75 781.04 347.44 814.66"/><path class="cls-4" d="M321.91,781.11c0,2.74-.52,7.34,1.31,7.41s1.07-4.37,3.15-4.25c1.33.08-.62,14.6,4.4,14.95,3.45.24,2.82-7.12,3.17-11.73.24-3.12,4.23-2.51,4.27-.44,0,2.31-.11,3.85,0,6.48.19,4.38,6.93,3.22,6.69-2.64s0-9.82,0-9.82Z"/><path class="cls-21" d="M315.6,801.4a7.08,7.08,0,0,1-1.56-.16,5.51,5.51,0,0,1-4.05-3c-2.69-5.7,4.39-16.38,4.67-16.85l.37,1.92c-.06.11-6.22,9.29-3.8,14.41a4.19,4.19,0,0,0,3.13,2.31,6.1,6.1,0,0,0,1.32.14c9.5,0,25.73-17.72,25.91-17.92.66-.8,1.91,0,1.46.63C342.3,783.69,325.81,801.38,315.6,801.4Z"/><path class="cls-14" d="M592.7,342c-37.48-1.43-89.07,26.28-70.77,94.05-.4,5.73,3,9.82,6.68,8.7s.43-12,.43-12c6.24-50.39,17.91-59.1,37.73-58.92l46.48-.1c11.49,1.69,32.37,9.73,35.5,50.06l11.57,2.14C661.24,396.79,654.18,344.32,592.7,342Z"/><path class="cls-22" d="M592.7,336.07c-37.48-1.43-89.07,26.28-70.77,94.05l7.12-3.28c6.24-50.39,17.91-59.1,37.73-58.92l46.48-.1c11.49,1.69,32.93,11.89,36.06,52.22l11,0C661.24,390.89,654.18,338.42,592.7,336.07Z"/><path class="cls-23" d="M585,337.17l-5.57,12.23s.66,6.89,7.43,6.75,7.67-3.27,7.67-3.27l.88-14Z"/><path class="cls-23" d="M613.65,327c-6.35,11.22-9.16,14.71-17.45,16.39-10.75,2.18-22.79-5.06-17.19-22.92,4.57-14.57,11.48-12.32,18.25-11.77S620.5,314.85,613.65,327Z"/><path class="cls-21" d="M588.42,318.12c-1.69-.88-3.86-.13-5.16,1.25a5.66,5.66,0,0,0-1.42,5.41,4.92,4.92,0,0,0-4.63,5.17c-1.77-4.14-.81-8.45-1.17-12.68s.11-8.84,2.86-12.09A13.8,13.8,0,0,1,583,302a21.29,21.29,0,0,1,19.12-.27,11.61,11.61,0,0,0,8.6,1.51c8.19-2,13,3.56,8.06,8.74,1.58.57,3.31,1.27,4,2.79a1.26,1.26,0,0,1,0,1.23,1.42,1.42,0,0,1-.75.47,8.92,8.92,0,0,1-4.31.34c.55.47,3.59.65,4.51,2.42,2.44,4.7-7.23,2.33-8.7,1.86,1.68.32,6.1,3.84,4.69,6.26-.28.48-6.24,4-12.51-3.33a11.44,11.44,0,0,0-5.44-3.83c-1.69-.45-3.47.17-5.11.79-1.2.45-4.25,2.31-5.13,1.2S590.38,319.09,588.42,318.12Z"/><path class="cls-23" d="M650.51,420.06c-1.66,5.72-3.34,6.29-1.33,7.2s3.64-2.29,3.64-2.29l9.3,1.85s-2.1-6-3.56-6.77S650.51,420.06,650.51,420.06Z"/><path class="cls-23" d="M529,426.84c1.21,3,1.55,3,3.24,6.66,3.23,6.93-4.34,17.89-9,5.92-1.29-3.28-1.31-9.31-1.31-9.31Z"/><path class="cls-21" d="M601.66,302.47c6.15.42,14.68-4.5,19.3,1.59.25.34.83,0,.58-.34-4.52-6.71-13.66-1.49-19.88-1.82-.37,0-.36.55,0,.57Z"/><path class="cls-21" d="M604.3,299.51c-4.18,1-8.25-1.11-12.46-.58a19.09,19.09,0,0,0-9.61,4.62c-.37.31.12,1,.53.68,3.35-2.4,7-4.56,11.25-4.41,3.59.12,6.93,1.51,10.5.42a.38.38,0,0,0-.2-.72Z"/><path class="cls-21" d="M579.6,305.3a10,10,0,0,0-5,7.93,22.75,22.75,0,0,0,.56,6.48c.26,1.31.33,2.72,1.58,3.41.33.18.74-.29.42-.55-1.12-.87-1.2-2.76-1.42-4a21.92,21.92,0,0,1-.43-4.94,10,10,0,0,1,4.48-7.9c.24-.17,0-.57-.24-.4Z"/><path class="cls-21" d="M626.31,315.68c-1.62-2.67-5.21-4.59-8.3-3.33-.28.11-.29.62.08.58,3.06-.32,5.95.31,7.77,3,.19.28.63,0,.45-.26Z"/><path class="cls-19" d="M420.34,598.19c19.65,7.22,36.71,29.76,32.8,46.15C448.72,662.84,436,670.82,436,670.82l-4-7.43s10.21-16,9.32-23.49c-1.42-12.07-16.66-20.13-16.66-20.13Z"/><path class="cls-21" d="M372,807s-12.07,4.87-15.08,7.62l23.9,0,0-7.6Z"/><path class="cls-21" d="M424.79,806.56s3.43,4,4.06,7.95l-16.31,0a19.1,19.1,0,0,1,3-8Z"/><path class="cls-24" d="M425.78,806.92l-11.13,0c.22-13.12-2.48-57.82-5.09-91.24-1.54-19.6-3.06-35.35-3.95-38.54l6-1.32,22.51-5C437.93,688.44,429,769.25,425.78,806.92Z"/><path class="cls-25" d="M384.86,676.45c-8.68,13.68-10.93,112.54-14.57,130.86l10.56.6a958.62,958.62,0,0,1,38-132.39Z"/><path class="cls-14" d="M423.26,675.51c-5.09,13.84-9.67,27.38-13.71,40.18-1.54-19.6-3.06-35.35-3.95-38.54l6-1.32Z"/><path class="cls-25" d="M384.86,676.45c-8.68,13.68-10.93,112.54-14.57,130.86l10.56.6a958.62,958.62,0,0,1,38-132.39Z"/><path class="cls-23" d="M391.49,566.09s-6.76,25.76,10.13,25.73l-1,6.58,12.83,1.4-2.77-9.17s2.54-16.2,2.71-19.12C413.69,566,398.39,556.42,391.49,566.09Z"/><rect class="cls-21" x="344.78" y="537.21" width="4.98" height="21.03" transform="translate(-1.08 0.69) rotate(-0.11)"/><rect class="cls-11" x="329.33" y="529.22" width="35.81" height="7.99" rx="1.95" ry="1.95" transform="translate(-1.05 0.69) rotate(-0.11)"/><path class="cls-23" d="M343.41,563.73c-.13-4.77-4.07-3.52-1.9-11.3,1.34-4.81,11.28.77,10,4.11s-2.66,8.61-2.66,8.61Z"/><path class="cls-11" d="M401.74,596.88c-25.25,1.67-26.91,10.18-38.22,8.85-16.73-2-13.8-33-11.73-44.17l-10,0s-18,70.76,38.87,57.68c-2.18,12.4,12,32.64-1.75,57.2,21.59,5.86,41.74,7.3,59-.12-3-4.07,6.19-45.18-11.85-74.78C422.54,595.79,403.59,596.76,401.74,596.88Z"/><path class="cls-11" d="M401.74,596.88c-25.25,1.67-26.91,10.18-38.22,8.85-16.73-2-13.8-33-11.73-44.17l-10,0s-18,70.76,38.87,57.68c-2.18,12.4,12,32.64-1.75,57.2,21.59,5.86,41.74,7.3,59-.12-3-4.07,6.19-45.18-11.85-74.78C422.54,595.79,403.59,596.76,401.74,596.88Z"/><path class="cls-22" d="M398.26,571c1.65.42,3.56.74,4.44,2.14a5.2,5.2,0,0,1,.48,3.09,2.58,2.58,0,0,1,2.71-1.77,2.52,2.52,0,0,1,2.2,2.33,4.12,4.12,0,0,1-.37,1.56,18.69,18.69,0,0,1-1.88,3.58c2.07.76,3.79,6.79,4.82,8.67,3.47-.87,11.19-3.85,11.86-16.14.31-5.72-1.43-12.57-7.64-16.39-4.38-2.69-11.66-2.73-16.68-1.45-4.07,1-10.57,5.1-7.54,9.86C392.2,568.92,395.54,570.33,398.26,571Z"/><path class="cls-22" d="M419.89,563.2c2.35-.78,5.33-.37,6.74,1.6,1.1,1.53,1,3.54,1.36,5.37a4.17,4.17,0,0,0,1.17,2.39,5,5,0,0,0,3.12,1c2.72.15,5.47-.2,8.15.26s5.42,2,6.18,4.47c.42,1.39.19,2.91.7,4.27.76,2,2.93,3.2,4.82,4.38a31.42,31.42,0,0,1,9.92,9.87,17.87,17.87,0,0,1,3,8.19c.19,2.91,2.29,6.76,1.73,9.62-.6,3.09-3.64,7.27-9.65,9.21-10.38,3.34-13.67,4.79-23.61-1.12-1.2-.71-3.54-3.14-4.63-4a5.28,5.28,0,0,1-1.69-2.69c-.83-2.86.13-5.93,1.62-8.53s3.5-4.89,5-7.47a9.35,9.35,0,0,0,1.57-5.06,2.72,2.72,0,0,0-.68-1.84,3.1,3.1,0,0,0-1.61-.73c-2.18-.43-4.59,0-6.57-1a4.63,4.63,0,0,1-2.4-5.28c.39-1.34,1.4-2.46,1.69-3.82.41-2-.81-4-2.52-5.11a14.64,14.64,0,0,0-5.85-1.93,6.75,6.75,0,0,1-2.89-.92,3.87,3.87,0,0,1-1.47-3.21C413.13,567.28,416.26,564.41,419.89,563.2Z"/><path class="cls-22" d="M418.07,573.41a6,6,0,0,1,5.33,5.93c-.05,2.32-1.49,4.28-2.42,6.31-1.08,2.36-1.86,5.47.19,7.56s5.43,1.5,8.18,1.66c3.71.22,4.81,3.11,3.64,6.34-.67,1.86-1.59,3.41-1.81,5.41,0,.36.59.45.64.09.53-3.31,4.18-7.69,1.55-11s-7.55-.56-10.73-2.32c-5.62-3.1,1.55-10.1,1.31-14.45a6.49,6.49,0,0,0-5.84-5.93c-.2,0-.25.32,0,.35Z"/><path class="cls-22" d="M392.23,558.16c9.28-5.27,19.84-4.28,27.62,3.18a.31.31,0,0,0,.44-.44c-7.12-7.79-19.61-9.32-28.2-3-.14.11,0,.33.14.24Z"/><polygon class="cls-23" points="715.88 588.49 711.71 596.88 721.91 601.05 723 591.39 715.88 588.49"/><path class="cls-23" d="M722,561.16c-23.14,10.07-13.66,34.49.43,31.62,6.86-1.4,10.33-23.47,10.33-23.47Z"/><path class="cls-16" d="M729.73,557.68a12.11,12.11,0,0,0-2.74-3.93c-1.25-1-3.24-1.33-4.42-.23-1.56,1.45-.65,4.16.93,5.58-1.36.16-3-.77-4,.16-.76.71-.49,2-.06,2.9a12.92,12.92,0,0,0,4.74,5.44c-1.17.67-2.53,2-1.83,3.11.19.32.52.54.71.86.45.75,0,1.7-.44,2.44q-1.1,1.81-2.36,3.5c.8-1.09,2.73-.64,3.32.57a3.53,3.53,0,0,1-.82,3.73,3.7,3.7,0,0,1-1.87,1.19c-.64.15-3.44,8.82-1.25,10.52,2.7,2.1,11.9.28,13.23-2.1,1.33,1.44,3.28,2.54,5.2,2.15s3.4-2.76,2.36-4.42a5.41,5.41,0,0,0,6.53-7.84c1.13-.34,1.36-1.88,1.07-3a7,7,0,0,0-4.79-4.92,2.37,2.37,0,0,0,2.16-2.33,4.88,4.88,0,0,0-1.29-3.18c-2.17-2.68-4.75-3.4-8-3.8S731.16,560.35,729.73,557.68Z"/><path class="cls-21" d="M708,805.42s-13.54,6.5-15.36,8.53c0,0,26.64,1.2,28.73-.06s-4.27-8.49-4.27-8.49Z"/><path class="cls-21" d="M758.42,798.07s-11.9,9.16-13.26,11.52c0,0,28.09-4.17,28.09-6s-5.93-7.42-5.93-7.42Z"/><path class="cls-26" d="M721.13,679.88c-.5,2.75-19,75.94,34,119.82l15.37-3.52s-17.88-16.77-26.31-47c-8-28.54-1.64-31.34,3.14-47.06,5.29-17.4,1.35-30,1.35-30Z"/><path class="cls-22" d="M695.78,679.66c-8.41,20.1-22.85,88.59,8.62,127.15l15.71,0s-12.38-13.57-13.76-45,6.62-45.29,12.26-55.68,10.87-28,10.87-28Z"/><path class="cls-19" d="M684.69,555.06c-4.17,14.72-5.55,41.91,15.36,52.86l14-3.41s-25.23-13.23-19.82-46.66Z"/><path class="cls-11" d="M646.14,547.53,657,546.19s-1.31,45.62,51.38,49.46c40.22,2.93,43.38,78.4,43.38,78.4-13,8.73-34.73,11.37-62.61,9.37,0,0,1.78-53.84-2.64-68.58C686.5,614.84,642.73,601.07,646.14,547.53Z"/><path class="cls-23" d="M632.86,539.25c-1.84,2.13,5.84,4.83,13.28,8.28l9.53-1.18a37.5,37.5,0,0,0,0-3.89c-.12-2-1.11-3.12-2.24-1.41s-6,2.28-8.22.73S634.69,537.12,632.86,539.25Z"/><path class="cls-23" d="M684.69,555.06c-3.49-3.44-2.57-3.23-2.57-3.23l10.65,2.41s2.34-5.2,4.33-5.34-1.5,3.58-.7,5-2.19,4-2.19,4Z"/><path class="cls-16" d="M735.77,562.49c2.26.38,4.56.69,6.41,2.17a5,5,0,0,1,1.4,6.6c-.33.51.46.94.8.47A5.52,5.52,0,0,0,744,565c-1.87-2.36-5.26-3.16-8.13-3.09-.29,0-.38.48-.07.53Z"/><path class="cls-16" d="M745.48,582.24c1.57.91,2.84,2.41,2.21,4.33-.58,1.76-2.31,2.79-3.76,3.75a.34.34,0,0,0,.34.58c1.86-1.05,3.93-2.43,4.26-4.73.3-2-1.08-3.55-2.74-4.47a.31.31,0,0,0-.32.54Z"/><path class="cls-16" d="M721.11,593.36a13.08,13.08,0,0,0,15.6-1.8c.34-.34-.16-.8-.51-.51A13.73,13.73,0,0,1,721.32,593c-.25-.12-.46.23-.22.37Z"/><path class="cls-16" d="M746.05,565.86c3.18,2.67.24,6.57-1.71,8.89-.23.27.14.65.39.39,2.32-2.33,5.43-7,1.46-9.46-.11-.07-.24.09-.14.18Z"/><polygon class="cls-19" points="432.59 227.47 428.25 216.86 470.17 200.94 432.59 227.47"/><polygon class="cls-7" points="434.7 220.93 470.17 200.94 445.48 226.02 434.7 220.93"/><polygon class="cls-7" points="418.65 212.54 470.17 200.94 428.25 216.86 418.65 212.54"/><polygon class="cls-11" points="434.7 220.93 432.59 227.47 438.99 222.96 434.7 220.93"/><path class="cls-18" d="M427.67,226.06c-10.94-1.85-25.8,9.22-19.41,20.75,2.18,3.93,13.4,2.22,12.56-2.12-.4-2.08-2.94-3-5-2.72-12.24,1.4-12.72,11.66-12.18,14.27,2.8,13.49,23.47,8.92,30.42,7"/></g></g></svg>